<svg width="24" height="24" viewBox="0 0 24 24" fill="none" xmlns="http://www.w3.org/2000/svg">
<path d="M5.99902 10.841C6.60002 11.022 7.27302 11.171 7.99902 11.281M10.999 15C6.58002 15 2.99902 13.656 2.99902 12M5.99902 17.841C6.60002 18.022 7.27302 18.171 7.99902 18.281M10.999 8C15.417 8 18.999 6.656 18.999 5C18.999 3.343 15.417 2 10.999 2C6.58102 2 2.99902 3.343 2.99902 5C2.99902 6.656 6.58002 8 10.999 8Z" stroke="black" strokeWidth="1.5" strokeLinecap="round" strokeLinejoin="round"/>
<path d="M10.999 22C6.58002 22 2.99902 20.656 2.99902 19V5M18.999 5V10.5M15.742 16.378C15.742 16.318 15.751 15.553 15.752 15.118C15.753 14.722 15.718 14.338 15.908 13.988C16.618 12.576 18.658 12.72 19.162 14.159C19.25 14.396 19.255 14.772 19.252 15.119C19.249 15.562 19.258 16.379 19.258 16.379M15.742 16.378C14.662 16.378 14.219 17.158 14.099 17.637C13.979 18.117 13.979 19.857 14.051 20.577C14.291 21.476 14.891 21.847 15.478 21.967C16.018 22.016 18.298 21.997 18.958 21.997C19.918 22.016 20.638 21.656 20.938 20.577C20.998 20.217 21.058 18.237 20.908 17.637C20.589 16.677 19.858 16.379 19.258 16.379M15.742 16.378L19.258 16.379" stroke="black" strokeWidth="1.5" strokeLinecap="round" strokeLinejoin="round"/>
</svg>
